<svg height="400" viewBox="0 0 400 400" width="400" xmlns="http://www.w3.org/2000/svg"><g fill-rule="evenodd"><path d="m29.971 18.9c-10.441 10.395-21.498 21.51-24.571 24.7l-5.588 5.8 5.943-5.8c12.191-11.896 43.752-43.6 43.404-43.6-.113 0-8.748 8.505-19.188 18.9m345.228 5.616c13.529 13.576 24.676 24.684 24.77 24.684.43 0-34.775-35.375-44.171-44.384-2.859-2.741 5.871 6.124 19.401 19.7m-370.391 30.484c2.745 2.86 5.074 5.148 5.174 5.084.101-.063-2.146-2.403-4.992-5.2l-5.175-5.084zm6.392 6.71c0 .061 1.395 1.456 3.1 3.1l3.1 2.99-2.99-3.1c-2.777-2.879-3.21-3.283-3.21-2.99m373.787 3.59-2.387 2.5 2.5-2.387c1.375-1.314 2.5-2.439 2.5-2.5 0-.296-.395.065-2.613 2.387m-360.805 9.2c3.09 3.135 5.699 5.649 5.799 5.586.208-.131-10.856-11.286-11.194-11.286-.123 0 2.305 2.565 5.395 5.7m7.018 7.21c0 .061 1.395 1.456 3.1 3.1l3.1 2.99-2.99-3.1c-2.777-2.879-3.21-3.283-3.21-2.99m333.787 3.59-2.387 2.5 2.5-2.387c1.375-1.314 2.5-2.439 2.5-2.5 0-.296-.395.065-2.613 2.387m-320.805 9.2c3.09 3.135 5.699 5.649 5.799 5.586.208-.131-10.856-11.286-11.194-11.286-.123 0 2.305 2.565 5.395 5.7m7.018 7.21c0 .061 1.395 1.456 3.1 3.1l3.1 2.99-2.99-3.1c-2.777-2.879-3.21-3.283-3.21-2.99m293.787 3.59-2.387 2.5 2.5-2.387c1.375-1.314 2.5-2.439 2.5-2.5 0-.296-.395.065-2.613 2.387m-280.805 9.2c3.09 3.135 5.699 5.649 5.799 5.586.208-.131-10.856-11.286-11.194-11.286-.123 0 2.305 2.565 5.395 5.7m7.018 7.21c0 .061 1.395 1.456 3.1 3.1l3.1 2.99-2.99-3.1c-2.777-2.879-3.21-3.283-3.21-2.99m253.787 3.59-2.387 2.5 2.5-2.387c1.375-1.314 2.5-2.439 2.5-2.5 0-.296-.395.065-2.613 2.387m-240.805 9.2c3.09 3.135 5.699 5.649 5.799 5.586.208-.131-10.856-11.286-11.194-11.286-.123 0 2.305 2.565 5.395 5.7m7.018 7.21c0 .061 1.395 1.456 3.1 3.1l3.1 2.99-2.99-3.1c-2.777-2.879-3.21-3.283-3.21-2.99m213.787 3.59-2.387 2.5 2.5-2.387c1.375-1.314 2.5-2.439 2.5-2.5 0-.296-.395.065-2.613 2.387m-199.779 10.1c2.526 2.64 4.674 4.748 4.774 4.684.101-.063-1.966-2.223-4.591-4.8l-4.774-4.684zm5.992 6.31c0 .061 1.395 1.456 3.1 3.1l3.1 2.99-2.99-3.1c-2.777-2.879-3.21-3.283-3.21-2.99m173.787 3.59-2.387 2.5 2.5-2.387c1.375-1.314 2.5-2.439 2.5-2.5 0-.296-.395.065-2.613 2.387m-160.805 9.2c3.09 3.135 5.699 5.649 5.799 5.586.208-.131-10.856-11.286-11.194-11.286-.123 0 2.305 2.565 5.395 5.7m7.018 7.21c0 .061 1.395 1.456 3.1 3.1l3.1 2.99-2.99-3.1c-2.777-2.879-3.21-3.283-3.21-2.99m133.787 3.59-2.387 2.5 2.5-2.387c1.375-1.314 2.5-2.439 2.5-2.5 0-.296-.395.065-2.613 2.387m-126.54 3.6c.1.055 2.785 2.62 5.967 5.7l5.786 5.6-5.595-5.7c-3.077-3.135-5.762-5.7-5.966-5.7-.205 0-.291.045-.192.1m66.361 66.1c2.745 2.86 5.074 5.148 5.174 5.084.101-.063-2.146-2.403-4.992-5.2l-5.175-5.084zm6.392 6.71c0 .061 1.395 1.456 3.1 3.1l3.1 2.99-2.99-3.1c-2.777-2.879-3.21-3.283-3.21-2.99m-25.025 2.39-1.175 1.3 1.3-1.175c1.212-1.095 1.484-1.425 1.175-1.425-.069 0-.654.585-1.3 1.3m38.007 10.4c3.09 3.135 5.699 5.649 5.799 5.586.208-.131-10.856-11.286-11.194-11.286-.123 0 2.305 2.565 5.395 5.7m7.018 7.21c0 .061 1.395 1.456 3.1 3.1l3.1 2.99-2.99-3.1c-2.777-2.879-3.21-3.283-3.21-2.99m-65.025 2.39-1.175 1.3 1.3-1.175c1.212-1.095 1.484-1.425 1.175-1.425-.069 0-.654.585-1.3 1.3m78.007 10.4c3.09 3.135 5.699 5.649 5.799 5.586.208-.131-10.856-11.286-11.194-11.286-.123 0 2.305 2.565 5.395 5.7m7.018 7.21c0 .061 1.395 1.456 3.1 3.1l3.1 2.99-2.99-3.1c-2.777-2.879-3.21-3.283-3.21-2.99m-106.213 3.59-2.387 2.5 2.5-2.387c1.375-1.314 2.5-2.439 2.5-2.5 0-.296-.395.065-2.613 2.387m119.195 9.2c3.09 3.135 5.699 5.649 5.799 5.586.208-.131-10.856-11.286-11.194-11.286-.123 0 2.305 2.565 5.395 5.7m7.018 7.21c0 .061 1.395 1.456 3.1 3.1l3.1 2.99-2.99-3.1c-2.777-2.879-3.21-3.283-3.21-2.99m-146.213 3.59-2.387 2.5 2.5-2.387c1.375-1.314 2.5-2.439 2.5-2.5 0-.296-.395.065-2.613 2.387m159.195 9.2c3.09 3.135 5.699 5.649 5.799 5.586.208-.131-10.856-11.286-11.194-11.286-.123 0 2.305 2.565 5.395 5.7m7.018 7.21c0 .061 1.395 1.456 3.1 3.1l3.1 2.99-2.99-3.1c-2.777-2.879-3.21-3.283-3.21-2.99m-186.213 3.59-2.387 2.5 2.5-2.387c2.322-2.218 2.683-2.613 2.387-2.613-.061 0-1.186 1.125-2.5 2.5m-100.154 10.598c7.674 7.876 32.307 32.455 38.772 38.688 3.187 3.072-5.274-5.523-18.804-19.1-13.529-13.578-24.674-24.686-24.767-24.686-.092 0 2.067 2.294 4.799 5.098m300.375-.498c2.526 2.64 4.674 4.748 4.774 4.684.101-.063-1.966-2.223-4.591-4.8l-4.774-4.684zm69.991 20.084c-13.53 13.576-22.259 22.443-19.399 19.703 9.625-9.219 44.617-44.387 44.166-44.387-.093 0-11.238 11.108-24.767 24.684m-63.999-13.774c0 .061 1.395 1.456 3.1 3.1l3.1 2.99-2.99-3.1c-2.777-2.879-3.21-3.283-3.21-2.99m-226.213 3.59-2.387 2.5 2.5-2.387c2.322-2.218 2.683-2.613 2.387-2.613-.061 0-1.186 1.125-2.5 2.5m239.195 9.2c3.09 3.135 5.699 5.649 5.799 5.586.208-.131-10.856-11.286-11.194-11.286-.123 0 2.305 2.565 5.395 5.7m7.018 7.21c0 .061 1.395 1.456 3.1 3.1l3.1 2.99-2.99-3.1c-2.777-2.879-3.21-3.283-3.21-2.99m-266.213 3.59-2.387 2.5 2.5-2.387c2.322-2.218 2.683-2.613 2.387-2.613-.061 0-1.186 1.125-2.5 2.5m273.46 3.6c.099.055 2.694 2.53 5.767 5.5l5.586 5.4-5.394-5.5c-2.967-3.025-5.562-5.5-5.767-5.5s-.291.045-.192.1" fill="#bdbdbd"/><path d="m43.795 5.7-5.595 5.7 5.7-5.595c3.135-3.077 5.7-5.642 5.7-5.7 0-.286-.608.3-5.805 5.595m81.105 69.315 75.1 75.184 74.9-74.899c41.196-41.195 75.081-74.9 75.302-74.9.522 0 49.398 48.878 49.398 49.401 0 .219-33.705 34.103-74.9 75.299l-74.899 74.9 74.899 74.9c41.195 41.196 74.9 75.081 74.9 75.302 0 .515-48.802 49.242-49.6 49.523-.532.188-.532.215.001.243.685.036 49.999-49.12 49.999-49.839 0-.257-33.682-34.151-74.848-75.32l-74.849-74.852 74.734-74.734c41.103-41.104 74.807-74.956 74.898-75.228.212-.636-49.161-50.044-49.867-49.902-.293.059-34.173 33.748-75.288 74.864l-74.754 74.757-69.337-69.357c-38.135-38.146-71.936-71.87-75.113-74.942s28.019 28.248 69.324 69.6m-100.305-50.115-6.395 6.5 6.5-6.395c6.039-5.942 6.681-6.605 6.395-6.605-.057 0-2.982 2.925-6.5 6.5m-19.181 19.086c-3.066 3.072-5.494 5.637-5.395 5.7.1.063 2.694-2.451 5.766-5.586 3.071-3.135 5.499-5.7 5.394-5.7-.104 0-2.699 2.514-5.765 5.586m4.586 16.079c0 .337 8.472 8.796 8.641 8.627.073-.073-1.842-2.1-4.254-4.505-2.413-2.405-4.387-4.26-4.387-4.122m20 20c0 .337 8.472 8.796 8.641 8.627.073-.073-1.842-2.1-4.254-4.505-2.413-2.405-4.387-4.26-4.387-4.122m20 20c0 .337 8.472 8.796 8.641 8.627.073-.073-1.842-2.1-4.254-4.505-2.413-2.405-4.387-4.26-4.387-4.122m20 20c0 .337 8.472 8.796 8.641 8.627.073-.073-1.842-2.1-4.254-4.505-2.413-2.405-4.387-4.26-4.387-4.122m20 20c0 .337 8.472 8.796 8.641 8.627.073-.073-1.842-2.1-4.254-4.505-2.413-2.405-4.387-4.26-4.387-4.122m20 20c0 .337 8.472 8.796 8.641 8.627.073-.073-1.842-2.1-4.254-4.505-2.413-2.405-4.387-4.26-4.387-4.122m20 20c0 .337 8.472 8.796 8.641 8.627.073-.073-1.842-2.1-4.254-4.505-2.413-2.405-4.387-4.26-4.387-4.122m-55.015 94.691c-41.116 41.115-74.829 74.977-74.92 75.249-.211.634 49.16 50.045 49.863 49.902.488-.099 131.291-130.632 144.405-144.107 3.211-3.3-27.905 27.705-69.147 68.9-41.243 41.195-75.166 74.9-75.385 74.9-.523 0-49.401-48.876-49.401-49.398 0-.221 33.705-34.106 74.9-75.302 41.194-41.195 74.796-74.9 74.669-74.9-.126 0-33.869 33.64-74.984 74.756m135.015-14.691c0 .337 8.472 8.796 8.641 8.627.073-.073-1.842-2.1-4.254-4.505-2.413-2.405-4.387-4.26-4.387-4.122m20 20c0 .337 8.472 8.796 8.641 8.627.073-.073-1.842-2.1-4.254-4.505-2.413-2.405-4.387-4.26-4.387-4.122m20 20c0 .337 8.472 8.796 8.641 8.627.073-.073-1.842-2.1-4.254-4.505-2.413-2.405-4.387-4.26-4.387-4.122m20 20c0 .337 8.472 8.796 8.641 8.627.073-.073-1.842-2.1-4.254-4.505-2.413-2.405-4.387-4.26-4.387-4.122m20 20c0 .337 8.472 8.796 8.641 8.627.073-.073-1.842-2.1-4.254-4.505-2.413-2.405-4.387-4.26-4.387-4.122m20 20c0 .337 8.472 8.796 8.641 8.627.073-.073-1.842-2.1-4.254-4.505-2.413-2.405-4.387-4.26-4.387-4.122m20 20c0 .337 8.472 8.796 8.641 8.627.073-.073-1.842-2.1-4.254-4.505-2.413-2.405-4.387-4.26-4.387-4.122" fill="#a4a4a4"/><path d="m334.995 15.3-6.395 6.5 6.5-6.395c3.575-3.518 6.5-6.443 6.5-6.5 0-.286-.663.356-6.605 6.395m-270.995-.7c2.523 2.53 4.677 4.6 4.787 4.6s-1.864-2.07-4.387-4.6-4.677-4.6-4.787-4.6 1.864 2.07 4.387 4.6m250.995 20.7-6.395 6.5 6.5-6.395c6.039-5.942 6.681-6.605 6.395-6.605-.057 0-2.982 2.925-6.5 6.5m-230.995-.7c2.523 2.53 4.677 4.6 4.787 4.6s-1.864-2.07-4.387-4.6-4.677-4.6-4.787-4.6 1.864 2.07 4.387 4.6m210.995 20.7-6.395 6.5 6.5-6.395c6.039-5.942 6.681-6.605 6.395-6.605-.057 0-2.982 2.925-6.5 6.5m-191.195-.9c2.633 2.64 4.877 4.8 4.987 4.8s-1.954-2.16-4.587-4.8-4.877-4.8-4.987-4.8 1.954 2.16 4.587 4.8m-89.4 9.8c3.184 3.19 5.88 5.8 5.99 5.8s-2.406-2.61-5.59-5.8-5.88-5.8-5.99-5.8 2.406 2.61 5.59 5.8m370.189.7-2.789 2.9 2.9-2.789c1.595-1.534 2.9-2.839 2.9-2.9 0-.294-.42.095-3.011 2.789m-109.594 10.4-6.395 6.5 6.5-6.395c3.575-3.518 6.5-6.443 6.5-6.5 0-.286-.663.356-6.605 6.395m-150.995-.7c2.523 2.53 4.677 4.6 4.787 4.6s-1.864-2.07-4.387-4.6-4.677-4.6-4.787-4.6 1.864 2.07 4.387 4.6m-89.6 9.6c3.184 3.19 5.88 5.8 5.99 5.8s-2.406-2.61-5.59-5.8-5.88-5.8-5.99-5.8 2.406 2.61 5.59 5.8m330.189.7-2.789 2.9 2.9-2.789c1.595-1.534 2.9-2.839 2.9-2.9 0-.294-.42.095-3.011 2.789m-109.594 10.4-6.395 6.5 6.5-6.395c3.575-3.518 6.5-6.443 6.5-6.5 0-.286-.663.356-6.605 6.395m-110.995-.7c2.523 2.53 4.677 4.6 4.787 4.6s-1.864-2.07-4.387-4.6-4.677-4.6-4.787-4.6 1.864 2.07 4.387 4.6m-89.6 9.6c3.184 3.19 5.88 5.8 5.99 5.8s-2.406-2.61-5.59-5.8-5.88-5.8-5.99-5.8 2.406 2.61 5.59 5.8m290.189.7-2.789 2.9 2.9-2.789c1.595-1.534 2.9-2.839 2.9-2.9 0-.294-.42.095-3.011 2.789m-109.594 10.4-6.395 6.5 6.5-6.395c6.039-5.942 6.681-6.605 6.395-6.605-.057 0-2.982 2.925-6.5 6.5m-70.995-.7c2.523 2.53 4.677 4.6 4.787 4.6s-1.864-2.07-4.387-4.6-4.677-4.6-4.787-4.6 1.864 2.07 4.387 4.6m-89.6 9.6c3.184 3.19 5.88 5.8 5.99 5.8s-2.406-2.61-5.59-5.8-5.88-5.8-5.99-5.8 2.406 2.61 5.59 5.8m250.189.7-2.789 2.9 2.9-2.789c1.595-1.534 2.9-2.839 2.9-2.9 0-.294-.42.095-3.011 2.789m-109.594 10.4-6.395 6.5 6.5-6.395c6.039-5.942 6.681-6.605 6.395-6.605-.057 0-2.982 2.925-6.5 6.5m-30.995-.7c2.523 2.53 4.677 4.6 4.787 4.6s-1.864-2.07-4.387-4.6-4.677-4.6-4.787-4.6 1.864 2.07 4.387 4.6m-89.6 9.6c3.184 3.19 5.88 5.8 5.99 5.8s-2.406-2.61-5.59-5.8-5.88-5.8-5.99-5.8 2.406 2.61 5.59 5.8m210.189.7-2.789 2.9 2.9-2.789c1.595-1.534 2.9-2.839 2.9-2.9 0-.294-.42.095-3.011 2.789m-190.189 19.3c3.184 3.19 5.88 5.8 5.99 5.8s-2.406-2.61-5.59-5.8-5.88-5.8-5.99-5.8 2.406 2.61 5.59 5.8m170.189.7-2.789 2.9 2.9-2.789c1.595-1.534 2.9-2.839 2.9-2.9 0-.294-.42.095-3.011 2.789m-150.189 19.3c3.184 3.19 5.88 5.8 5.99 5.8s-2.406-2.61-5.59-5.8-5.88-5.8-5.99-5.8 2.406 2.61 5.59 5.8m130.189.7-2.789 2.9 2.9-2.789c1.595-1.534 2.9-2.839 2.9-2.9 0-.294-.42.095-3.011 2.789m-115.212 14.2c.729.879.729.921 0 1.8l-.747.9.974-.9.974-.9-.974-.9-.974-.9zm-14.382 16.2-6.395 6.5 6.5-6.395c3.575-3.518 6.5-6.443 6.5-6.5 0-.286-.663.356-6.605 6.395m129.005-.7c2.523 2.53 4.677 4.6 4.787 4.6s-1.864-2.07-4.387-4.6-4.677-4.6-4.787-4.6 1.864 2.07 4.387 4.6m-149.005 20.7-6.395 6.5 6.5-6.395c3.575-3.518 6.5-6.443 6.5-6.5 0-.286-.663.356-6.605 6.395m169.005-.7c2.523 2.53 4.677 4.6 4.787 4.6s-1.864-2.07-4.387-4.6-4.677-4.6-4.787-4.6 1.864 2.07 4.387 4.6m-189.005 20.7-6.395 6.5 6.5-6.395c3.575-3.518 6.5-6.443 6.5-6.5 0-.286-.663.356-6.605 6.395m208.805-.9c2.633 2.64 4.877 4.8 4.987 4.8s-1.954-2.16-4.587-4.8-4.877-4.8-4.987-4.8 1.954 2.16 4.587 4.8m-89.4 9.8c3.184 3.19 5.88 5.8 5.99 5.8s-2.406-2.61-5.59-5.8-5.88-5.8-5.99-5.8 2.406 2.61 5.59 5.8m-29.811.7-2.789 2.9 2.9-2.789c2.694-2.591 3.083-3.011 2.789-3.011-.061 0-1.366 1.305-2.9 2.9m-109.594 10.4-6.395 6.5 6.5-6.395c3.575-3.518 6.5-6.443 6.5-6.5 0-.286-.663.356-6.605 6.395m249.005-.7c2.523 2.53 4.677 4.6 4.787 4.6s-1.864-2.07-4.387-4.6-4.677-4.6-4.787-4.6 1.864 2.07 4.387 4.6m-89.6 9.6c3.184 3.19 5.88 5.8 5.99 5.8s-2.406-2.61-5.59-5.8-5.88-5.8-5.99-5.8 2.406 2.61 5.59 5.8m-69.811.7-2.789 2.9 2.9-2.789c2.694-2.591 3.083-3.011 2.789-3.011-.061 0-1.366 1.305-2.9 2.9m-109.594 10.4-6.395 6.5 6.5-6.395c3.575-3.518 6.5-6.443 6.5-6.5 0-.286-.663.356-6.605 6.395m289.005-.7c2.523 2.53 4.677 4.6 4.787 4.6s-1.864-2.07-4.387-4.6-4.677-4.6-4.787-4.6 1.864 2.07 4.387 4.6m-89.6 9.6c3.184 3.19 5.88 5.8 5.99 5.8s-2.406-2.61-5.59-5.8-5.88-5.8-5.99-5.8 2.406 2.61 5.59 5.8m-109.811.7-2.789 2.9 2.9-2.789c2.694-2.591 3.083-3.011 2.789-3.011-.061 0-1.366 1.305-2.9 2.9m-109.594 10.4-6.395 6.5 6.5-6.395c3.575-3.518 6.5-6.443 6.5-6.5 0-.286-.663.356-6.605 6.395m329.005-.7c2.523 2.53 4.677 4.6 4.787 4.6s-1.864-2.07-4.387-4.6-4.677-4.6-4.787-4.6 1.864 2.07 4.387 4.6m-89.6 9.6c3.184 3.19 5.88 5.8 5.99 5.8s-2.406-2.61-5.59-5.8-5.88-5.8-5.99-5.8 2.406 2.61 5.59 5.8m-149.811.7-2.789 2.9 2.9-2.789c2.694-2.591 3.083-3.011 2.789-3.011-.061 0-1.366 1.305-2.9 2.9m-109.594 10.4-6.395 6.5 6.5-6.395c3.575-3.518 6.5-6.443 6.5-6.5 0-.286-.663.356-6.605 6.395m369.005-.7c2.523 2.53 4.677 4.6 4.787 4.6s-1.864-2.07-4.387-4.6-4.677-4.6-4.787-4.6 1.864 2.07 4.387 4.6m-89.6 9.6c3.184 3.19 5.88 5.8 5.99 5.8s-2.406-2.61-5.59-5.8-5.88-5.8-5.99-5.8 2.406 2.61 5.59 5.8m-189.811.7-2.789 2.9 2.9-2.789c2.694-2.591 3.083-3.011 2.789-3.011-.061 0-1.366 1.305-2.9 2.9m209.811 19.3c3.184 3.19 5.88 5.8 5.99 5.8s-2.406-2.61-5.59-5.8-5.88-5.8-5.99-5.8 2.406 2.61 5.59 5.8m-229.811.7-2.789 2.9 2.9-2.789c2.694-2.591 3.083-3.011 2.789-3.011-.061 0-1.366 1.305-2.9 2.9m249.811 19.3c3.184 3.19 5.88 5.8 5.99 5.8s-2.406-2.61-5.59-5.8-5.88-5.8-5.99-5.8 2.406 2.61 5.59 5.8m-269.811.7-2.789 2.9 2.9-2.789c2.694-2.591 3.083-3.011 2.789-3.011-.061 0-1.366 1.305-2.9 2.9" fill="#5c5c5c"/><path d="m24.799 25.1-24.599 24.7 24.7-24.599c22.96-22.866 24.88-24.801 24.599-24.801-.056 0-11.171 11.115-24.7 24.7m29.801-19.9c2.633 2.64 4.877 4.8 4.987 4.8s-1.954-2.16-4.587-4.8-4.877-4.8-4.987-4.8 1.954 2.16 4.587 4.8m290.387.1-2.387 2.5 2.5-2.387c1.375-1.314 2.5-2.439 2.5-2.5 0-.296-.395.065-2.613 2.387m-270.993 19.2c2.967 3.025 5.442 5.5 5.5 5.5.287 0-.285-.594-5.394-5.606l-5.5-5.394zm250.993.8-2.387 2.5 2.5-2.387c2.322-2.218 2.683-2.613 2.387-2.613-.061 0-1.186 1.125-2.5 2.5m-231.187 19.1c2.854 2.86 5.278 5.2 5.388 5.2s-2.134-2.34-4.988-5.2-5.278-5.2-5.388-5.2 2.134 2.34 4.988 5.2m211.187.9-2.387 2.5 2.5-2.387c1.375-1.314 2.5-2.439 2.5-2.5 0-.296-.395.065-2.613 2.387m89.613 9.5c-2.633 2.64-4.697 4.8-4.587 4.8s2.354-2.16 4.987-4.8 4.697-4.8 4.587-4.8-2.354 2.16-4.987 4.8m-393-3.49c0 .061 1.395 1.456 3.1 3.1l3.1 2.99-2.99-3.1c-2.777-2.879-3.21-3.283-3.21-2.99m112.394 13.19c5.012 5.109 5.606 5.681 5.606 5.394 0-.058-2.475-2.533-5.5-5.5l-5.5-5.394zm170.993.8-2.387 2.5 2.5-2.387c1.375-1.314 2.5-2.439 2.5-2.5 0-.296-.395.065-2.613 2.387m89.613 9.5c-2.633 2.64-4.697 4.8-4.587 4.8s2.354-2.16 4.987-4.8 4.697-4.8 4.587-4.8-2.354 2.16-4.987 4.8m-353-3.49c0 .061 1.395 1.456 3.1 3.1l3.1 2.99-2.99-3.1c-2.777-2.879-3.21-3.283-3.21-2.99m112.394 13.19c5.012 5.109 5.606 5.681 5.606 5.394 0-.058-2.475-2.533-5.5-5.5l-5.5-5.394zm130.993.8-2.387 2.5 2.5-2.387c1.375-1.314 2.5-2.439 2.5-2.5 0-.296-.395.065-2.613 2.387m89.613 9.5c-2.633 2.64-4.697 4.8-4.587 4.8s2.354-2.16 4.987-4.8 4.697-4.8 4.587-4.8-2.354 2.16-4.987 4.8m-313-3.49c0 .061 1.395 1.456 3.1 3.1l3.1 2.99-2.99-3.1c-2.777-2.879-3.21-3.283-3.21-2.99m112.394 13.19c5.012 5.109 5.606 5.681 5.606 5.394 0-.058-2.475-2.533-5.5-5.5l-5.5-5.394zm90.993.8-2.387 2.5 2.5-2.387c1.375-1.314 2.5-2.439 2.5-2.5 0-.296-.395.065-2.613 2.387m89.613 9.5c-2.633 2.64-4.697 4.8-4.587 4.8s2.354-2.16 4.987-4.8 4.697-4.8 4.587-4.8-2.354 2.16-4.987 4.8m-273-3.49c0 .061 1.395 1.456 3.1 3.1l3.1 2.99-2.99-3.1c-2.777-2.879-3.21-3.283-3.21-2.99m112.394 13.19c5.012 5.109 5.606 5.681 5.606 5.394 0-.058-2.475-2.533-5.5-5.5l-5.5-5.394zm50.993.8-2.387 2.5 2.5-2.387c1.375-1.314 2.5-2.439 2.5-2.5 0-.296-.395.065-2.613 2.387m89.613 9.5c-2.633 2.64-4.697 4.8-4.587 4.8s2.354-2.16 4.987-4.8 4.697-4.8 4.587-4.8-2.354 2.16-4.987 4.8m-233-3.49c0 .061 1.395 1.456 3.1 3.1l3.1 2.99-2.99-3.1c-2.777-2.879-3.21-3.283-3.21-2.99m112.394 13.19c2.967 3.025 5.442 5.5 5.5 5.5.287 0-.285-.594-5.394-5.606l-5.5-5.394zm10.993.8-2.387 2.5 2.5-2.387c1.375-1.314 2.5-2.439 2.5-2.5 0-.296-.395.065-2.613 2.387m89.613 9.5c-2.633 2.64-4.697 4.8-4.587 4.8s2.354-2.16 4.987-4.8 4.697-4.8 4.587-4.8-2.354 2.16-4.987 4.8m-193-3.49c0 .061 1.395 1.456 3.1 3.1l3.1 2.99-2.99-3.1c-2.777-2.879-3.21-3.283-3.21-2.99m173 23.49c-2.633 2.64-4.697 4.8-4.587 4.8s2.354-2.16 4.987-4.8 4.697-4.8 4.587-4.8-2.354 2.16-4.987 4.8m-153-3.49c0 .061 1.395 1.456 3.1 3.1l3.1 2.99-2.99-3.1c-2.777-2.879-3.21-3.283-3.21-2.99m133 23.49c-2.633 2.64-4.697 4.8-4.587 4.8s2.354-2.16 4.987-4.8 4.697-4.8 4.587-4.8-2.354 2.16-4.987 4.8m-113-3.49c0 .061 1.395 1.456 3.1 3.1l3.1 2.99-2.99-3.1c-2.777-2.879-3.21-3.283-3.21-2.99m112.8 13.69c2.743 2.75 5.078 5 5.188 5s-2.045-2.25-4.788-5-5.078-5-5.188-5 2.045 2.25 4.788 5m-109.413.3-2.387 2.5 2.5-2.387c2.322-2.218 2.683-2.613 2.387-2.613-.061 0-1.186 1.125-2.5 2.5m129.007 19.2c5.012 5.109 5.606 5.681 5.606 5.394 0-.058-2.475-2.533-5.5-5.5l-5.5-5.394zm-149.007.8-2.387 2.5 2.5-2.387c1.375-1.314 2.5-2.439 2.5-2.5 0-.296-.395.065-2.613 2.387m168.813 19.1c2.854 2.86 5.278 5.2 5.388 5.2s-2.134-2.34-4.988-5.2-5.278-5.2-5.388-5.2 2.134 2.34 4.988 5.2m-188.813.9-2.387 2.5 2.5-2.387c2.322-2.218 2.683-2.613 2.387-2.613-.061 0-1.186 1.125-2.5 2.5m89.613 9.5c-2.633 2.64-4.697 4.8-4.587 4.8s2.354-2.16 4.987-4.8 4.697-4.8 4.587-4.8-2.354 2.16-4.987 4.8m7-3.49c0 .061 1.395 1.456 3.1 3.1l3.1 2.99-2.99-3.1c-2.777-2.879-3.21-3.283-3.21-2.99m112.394 13.19c5.012 5.109 5.606 5.681 5.606 5.394 0-.058-2.475-2.533-5.5-5.5l-5.5-5.394zm-229.007.8-2.387 2.5 2.5-2.387c2.322-2.218 2.683-2.613 2.387-2.613-.061 0-1.186 1.125-2.5 2.5m89.613 9.5c-2.633 2.64-4.697 4.8-4.587 4.8s2.354-2.16 4.987-4.8 4.697-4.8 4.587-4.8-2.354 2.16-4.987 4.8m47-3.49c0 .061 1.395 1.456 3.1 3.1l3.1 2.99-2.99-3.1c-2.777-2.879-3.21-3.283-3.21-2.99m112.394 13.19c5.012 5.109 5.606 5.681 5.606 5.394 0-.058-2.475-2.533-5.5-5.5l-5.5-5.394zm-269.007.8-2.387 2.5 2.5-2.387c2.322-2.218 2.683-2.613 2.387-2.613-.061 0-1.186 1.125-2.5 2.5m89.613 9.5c-2.633 2.64-4.697 4.8-4.587 4.8s2.354-2.16 4.987-4.8 4.697-4.8 4.587-4.8-2.354 2.16-4.987 4.8m87-3.49c0 .061 1.395 1.456 3.1 3.1l3.1 2.99-2.99-3.1c-2.777-2.879-3.21-3.283-3.21-2.99m112.394 13.19c5.012 5.109 5.606 5.681 5.606 5.394 0-.058-2.475-2.533-5.5-5.5l-5.5-5.394zm-309.007.8-2.387 2.5 2.5-2.387c2.322-2.218 2.683-2.613 2.387-2.613-.061 0-1.186 1.125-2.5 2.5m89.613 9.5c-2.633 2.64-4.697 4.8-4.587 4.8s2.354-2.16 4.987-4.8 4.697-4.8 4.587-4.8-2.354 2.16-4.987 4.8m127-3.49c0 .061 1.395 1.456 3.1 3.1l3.1 2.99-2.99-3.1c-2.777-2.879-3.21-3.283-3.21-2.99m112.394 13.19c5.012 5.109 5.606 5.681 5.606 5.394 0-.058-2.475-2.533-5.5-5.5l-5.5-5.394zm-349.007.8-2.387 2.5 2.5-2.387c2.322-2.218 2.683-2.613 2.387-2.613-.061 0-1.186 1.125-2.5 2.5m89.613 9.5c-2.633 2.64-4.697 4.8-4.587 4.8s2.354-2.16 4.987-4.8 4.697-4.8 4.587-4.8-2.354 2.16-4.987 4.8m167-3.49c0 .061 1.395 1.456 3.1 3.1l3.1 2.99-2.99-3.1c-2.777-2.879-3.21-3.283-3.21-2.99m112.394 13.19c5.012 5.109 5.606 5.681 5.606 5.394 0-.058-2.475-2.533-5.5-5.5l-5.5-5.394zm-389.007.8-2.387 2.5 2.5-2.387c2.322-2.218 2.683-2.613 2.387-2.613-.061 0-1.186 1.125-2.5 2.5m89.613 9.5c-2.633 2.64-4.697 4.8-4.587 4.8s2.354-2.16 4.987-4.8 4.697-4.8 4.587-4.8-2.354 2.16-4.987 4.8m-69.8 20.2c13.529 13.53 24.688 24.6 24.798 24.6s-10.869-11.07-24.398-24.6-24.688-24.6-24.798-24.6 10.869 11.07 24.398 24.6m276.8-23.69c0 .061 1.395 1.456 3.1 3.1l3.1 2.99-2.99-3.1c-2.777-2.879-3.21-3.283-3.21-2.99m-227 23.49c-2.633 2.64-4.697 4.8-4.587 4.8s2.354-2.16 4.987-4.8 4.697-4.8 4.587-4.8-2.354 2.16-4.987 4.8m247-3.49c0 .061 1.395 1.456 3.1 3.1l3.1 2.99-2.99-3.1c-2.777-2.879-3.21-3.283-3.21-2.99m-267 23.49c-2.633 2.64-4.697 4.8-4.587 4.8s2.354-2.16 4.987-4.8 4.697-4.8 4.587-4.8-2.354 2.16-4.987 4.8m287-3.49c0 .061 1.395 1.456 3.1 3.1l3.1 2.99-2.99-3.1c-2.777-2.879-3.21-3.283-3.21-2.99" fill="#545454"/><path d="m25.1 25.1-24.7 24.699 75.1 75.101 75.099 75.1-75.099 75.1-75.1 75.101 24.7 24.699 24.699 24.7 75.101-75.1 75.1-75.099 75.196 75.195 75.196 75.195 24.699-24.7 24.7-24.699-75.195-75.196-75.195-75.196 75.199-75.2 75.199-75.2-24.699-24.7-24.7-24.699-75.2 75.199-75.2 75.199-75.1-75.099-75.101-75.1z" fill="#040404"/></g></svg>